<?xml version="1.0" encoding="UTF-8" standalone="no"?>
<!-- Generator: Adobe Illustrator 19.2.1, SVG Export Plug-In . SVG Version: 6.00 Build 0)  -->

<svg
   version="1.1"
   id="layer"
   x="0px"
   y="0px"
   viewBox="0 0 391265.19 66308.391"
   xml:space="preserve"
   sodipodi:docname="university-of-south-florida-usf-vector-logo-2022.svg"
   width="391265.19"
   height="66308.391"
   xmlns:inkscape="http://www.inkscape.org/namespaces/inkscape"
   xmlns:sodipodi="http://sodipodi.sourceforge.net/DTD/sodipodi-0.dtd"
   xmlns="http://www.w3.org/2000/svg"
   xmlns:svg="http://www.w3.org/2000/svg"><defs
   id="defs3533" /><sodipodi:namedview
   id="namedview3531"
   pagecolor="#ffffff"
   bordercolor="#000000"
   borderopacity="0.25"
   inkscape:showpageshadow="2"
   inkscape:pageopacity="0.0"
   inkscape:pagecheckerboard="0"
   inkscape:deskcolor="#d1d1d1"
   showgrid="false"
   inkscape:zoom="0.90697754"
   inkscape:cx="355.02533"
   inkscape:cy="377.62788"
   inkscape:window-width="1405"
   inkscape:window-height="855"
   inkscape:window-x="35"
   inkscape:window-y="23"
   inkscape:window-maximized="1"
   inkscape:current-layer="layer" />
<style
   type="text/css"
   id="style3516">
	.st0{fill:#FFFFFF;}
	.st1{fill:#CFC493;}
	.st2{fill:#006747;}
</style>
<path
   class="st0"
   d="m -13689.2,-175884.61 c 0,-2.2 2,-8.9 2,-8.9 0,0 -12.4,7.3 -12.4,15.6 0,5.8 3.7,9.3 3.7,10.7 0,1.7 -7.5,5.2 -30,5.2 l -16.4,27.2 -5.6,3.6 -6.8,12.8 h -12.7 l 7.7,-12.6 -1.9,-3.9 18.6,-27.9 c -29.1,0 -32.9,-3.5 -32.9,-4.1 0,-1.6 12.6,-7.4 12.6,-17.2 0,-4.5 -4.5,-10 -4.5,-10 -2.1,19 -30.8,14.5 -30.8,36 0,8.8 10.7,12.6 21.3,13.4 l -3.6,5.4 c -1.4,2 -0.3,4.3 1.4,7.7 l -7.1,11.4 c 0,0 -3.3,2.4 -4,3.7 -1.5,2.9 1.6,7.3 6.5,15.3 h 34.7 c 11.7,-6.6 16.5,-9.3 16.5,-12.1 l -0.2,-2.9 6.7,-11.7 c 1.7,-0.8 6,-3 7.8,-5.9 l 6.1,-9.9 c 17.4,-0.3 35.7,-7.3 35.7,-22.3 0.1,-9.9 -12.4,-11.2 -12.4,-18.6 m -24.5,38.8 -6.7,11 c -1.8,3 -7.5,5.3 -7.5,5.3 l -7.4,12.9 0.2,3.3 c 0.1,1.8 -11.4,7.9 -14.9,10 h -32.8 c -1.2,-2 -6.8,-10 -5.8,-12.1 0.4,-0.8 2,-1.9 3.7,-3.3 l 8,-12.8 c -1.7,-3.4 -2.8,-5.5 -2.1,-6.6 l 5.8,-8.7 c -6.6,0 -23.2,-1.6 -23.2,-11.3 0,-17.9 25.3,-17 29.4,-30.8 0.9,1.4 1.4,3.1 1.5,4.7 0,9.2 -12.7,13.4 -12.7,17.1 0,5.2 17.6,6.4 30.9,6.4 l -17,25.5 1.9,4 -9,15 h 18 l 7.2,-13.5 5.6,-3.6 15.9,-26.5 c 21.7,0 30.9,-3.5 30.9,-7.4 0,-2.6 -3.7,-5.3 -3.7,-10.7 0,-5.4 6.4,-10.1 6.4,-10.1 -3.3,12.3 12.1,12.3 12.1,22.1 0.1,13.9 -18.4,20.1 -34.7,20.1"
   id="path3518" />
<path
   class="st1"
   d="m -13686.6,-175884.61 c 0,-3.9 3.9,-15.5 3.9,-15.5 0,0 -19.6,10.9 -19.6,22.2 0,5.5 3.1,10 3.1,10 -5.8,2.7 -17.2,3.2 -28.3,3.2 l -16.8,27.9 -5.7,3.6 -6.4,12 h -6.3 l 6,-9.7 -1.8,-3.9 20.5,-30.6 c -23.3,0 -28.1,-0.7 -33.3,-2.1 0,0 10.8,-6.9 10.8,-16.5 0,-6.4 -8.1,-16.2 -8.1,-16.2 l -3,10.1 c -3.2,10.9 -29.6,10.8 -29.6,32.2 0,9.4 8.9,14 19.3,15.5 l -1.2,1.7 c -2,2.9 -0.9,5.9 0.6,9 l -6.1,9.8 c 0,0 -3.3,2.3 -4.4,4.3 -2.1,4.1 0.6,8.4 7.3,19.1 h 37.1 c 14.5,-8.2 18.3,-10.4 18.3,-15 0,0 -0.1,-1 -0.1,-1.9 l 5.9,-10.2 c 2.3,-1.1 6.3,-3.4 8.2,-6.6 l 5.3,-8.7 c 18.2,-0.7 36.9,-8.6 36.9,-24.9 0.1,-11.1 -12.5,-13.9 -12.5,-18.8 m -25.8,41 -6.1,9.9 c -1.8,2.9 -6.1,5.1 -7.8,5.9 l -6.7,11.7 0.2,2.9 c 0,2.7 -4.8,5.5 -16.5,12.1 h -34.7 c -4.9,-8 -8,-12.4 -6.5,-15.3 0.7,-1.4 4,-3.7 4,-3.7 l 7.1,-11.5 c -1.7,-3.4 -2.8,-5.7 -1.4,-7.7 l 3.6,-5.4 c -10.6,-0.7 -21.4,-4.5 -21.4,-13.3 0,-21.6 28.7,-17 30.9,-36 0,0 4.5,5.4 4.5,10 0,9.8 -12.7,15.5 -12.7,17.2 0,0.6 3.8,4.1 32.9,4.1 l -18.6,27.9 1.9,3.9 -7.7,12.5 h 12.7 l 6.8,-12.8 5.6,-3.6 16.3,-27.2 c 22.5,0 30,-3.5 30,-5.2 0,-1.4 -3.7,-4.9 -3.7,-10.7 0,-8.3 12.4,-15.6 12.4,-15.6 0,0 -2,6.7 -2,8.9 0,7.4 12.6,8.7 12.6,18.7 0,15 -18.3,22 -35.7,22.3"
   id="path3520" />
<path
   class="st2"
   d="m -13691,-175887.91 c 0,0 -6.4,4.7 -6.4,10.1 0,5.4 3.7,8.1 3.7,10.7 0,3.9 -9.3,7.4 -30.9,7.4 l -16,26.5 -5.5,3.6 -7.3,13.4 h -18 l 9.2,-14.9 -1.9,-4 17,-25.5 c -13.3,0 -30.9,-1.1 -30.9,-6.4 0,-3.7 12.7,-8 12.7,-17.1 -0.1,-1.7 -0.6,-3.3 -1.5,-4.7 -4.1,13.7 -29.4,12.9 -29.4,30.8 0,9.7 16.6,11.3 23.2,11.3 l -5.8,8.7 c -0.8,1.1 0.4,3.2 2.1,6.6 l -8,12.8 c -1.7,1.4 -3.3,2.5 -3.7,3.3 -1,2 4.6,10 5.8,12.1 h 32.8 c 3.5,-2 15,-8.1 14.9,-10 l -0.2,-3.3 7.4,-12.9 c 0,0 5.7,-2.3 7.5,-5.3 l 6.8,-11 c 16.3,0 34.7,-6.2 34.7,-20.1 -0.2,-9.8 -15.6,-9.8 -12.3,-22.1"
   id="path3522" />
<path
   class="st1"
   d="m -13735,-175803.81 c -0.6,0 -1.2,0.2 -1.7,0.7 -0.4,0.4 -0.7,1.1 -0.7,1.7 0,0.6 0.2,1.2 0.7,1.7 0.9,0.9 2.4,1 3.4,0 0,0 0,0 0,0 0.9,-0.9 0.9,-2.4 0,-3.4 -0.4,-0.4 -1,-0.7 -1.7,-0.7 m 1.5,3.8 c -0.8,0.8 -2.1,0.8 -2.9,0 0,0 0,0 0,0 -0.8,-0.8 -0.8,-2.1 0,-2.9 0.8,-0.8 2.1,-0.8 2.9,0 0,0 0,0 0,0 0.8,0.8 0.8,2.1 0,2.9"
   id="path3524" />
<path
   class="st1"
   d="m -13733.9,-175802.01 c 0,-0.3 -0.1,-0.6 -0.4,-0.7 -0.2,-0.1 -0.5,-0.1 -0.7,-0.1 h -0.9 v 2.6 h 0.5 v -1 h 0.4 c 0.2,0 0.4,0 0.5,0.1 0.2,0.1 0.3,0.4 0.2,0.6 v 0.2 0.1 0 0 h 0.4 v 0 c 0,0 0,-0.1 0,-0.1 0,-0.1 0,-0.1 0,-0.2 v -0.2 c 0,-0.1 -0.1,-0.3 -0.1,-0.4 -0.1,-0.1 -0.3,-0.2 -0.4,-0.3 0.1,0 0.3,-0.1 0.4,-0.1 0,-0.1 0.1,-0.3 0.1,-0.5 m -0.7,0.4 c -0.1,0 -0.3,0.1 -0.4,0.1 h -0.4 v -0.9 h 0.4 c 0.2,0 0.4,0 0.6,0.1 0.2,0.2 0.2,0.5 0.1,0.7 -0.2,0 -0.2,0 -0.3,0"
   id="path3526" />
<path
   class="st2"
   d="m -13639.6,-175888.21 v 14.7 c 0,2 0.9,3.1 2.8,3.1 1.9,0 2.8,-1.1 2.8,-3.1 v -14.7 h 4 v 14.7 c 0,4.6 -2.7,6.6 -6.9,6.6 -4.2,0 -6.8,-1.9 -6.8,-6.6 v -14.7 z m 18.1,21 v -21 h 4.4 l 5.6,12.4 h 0.1 v -12.4 h 3.7 v 21 h -3.8 l -6.1,-13.6 h -0.1 v 13.6 z m 22.1,0 v -21 h 4 v 21 z m 10.9,-21 h 4 l 3.7,15 h 0.1 l 3.7,-15 h 3.9 l -5.4,21 h -4.6 z m 21.9,21 v -21 h 11 v 3.5 h -7 v 4.8 h 5.3 v 3.5 h -5.3 v 5.5 h 7.3 v 3.5 z m 28.3,0 -3.5,-8.6 h -1.9 v 8.6 h -4 v -21 h 5.8 c 4.8,0 7.1,2.3 7.1,6.3 0,2.6 -0.9,4.5 -3.2,5.4 l 4,9.4 z m -5.4,-11.8 h 2 c 1.8,0 2.9,-0.9 2.9,-2.9 0,-2 -1.1,-2.9 -2.9,-2.9 h -2 z m 25.4,-3.3 c -0.7,-2 -1.5,-2.8 -2.9,-2.8 -1.4,0 -2.2,0.9 -2.2,2.3 0,3.2 9,3.4 9,10 0,3.6 -2.5,6 -6.7,6 -3.3,0 -5.8,-1.8 -6.9,-5.9 l 4,-0.8 c 0.5,2.5 1.9,3.4 3.1,3.4 1.3,0.1 2.4,-0.9 2.5,-2.2 0,-0.1 0,-0.2 0,-0.3 0,-4 -9,-4 -9,-9.9 0,-3.6 2.2,-5.9 6.3,-5.9 3.1,-0.2 5.9,2 6.5,5.1 z m 11.9,15.1 v -21 h 4 v 21 z m 24.3,-21 v 3.5 h -4.7 v 17.5 h -4 v -17.5 h -4.6 v -3.5 z m 13.1,8.5 3.4,-8.5 h 4.3 l -5.7,12.5 v 8.5 h -4 v -8.5 l -5.7,-12.5 h 4.3 z m 22.4,12.8 c -4,0 -6,-3.4 -6,-7.6 0,-4.2 2,-7.6 6,-7.6 4,0 6,3.4 6,7.6 0,4.2 -2,7.6 -6,7.6 z m 0,-13.5 c -2.4,0 -4,2.1 -4,5.9 0,3.8 1.6,5.9 4,5.9 2.4,0 4,-2.1 4,-5.9 0,-3.8 -1.6,-5.9 -4,-5.9 z m 12.4,13.2 v -12.9 h -2.5 v -1.8 h 2.5 v -1.7 c 0,-3.5 1.2,-4.3 3.6,-4.3 0.6,0 1.2,0.1 1.8,0.1 v 1.8 c -0.5,-0.1 -1,-0.2 -1.5,-0.2 -1.4,0 -1.9,0.5 -1.9,2.1 v 2.2 h 3.2 v 1.8 h -3.2 v 12.9 z m -190.9,27.2 c -1.6,-4.7 -3.7,-6.7 -7,-6.7 -3.3,0 -5.3,2.1 -5.3,5.4 0,7.5 21.3,8.1 21.3,23.7 0,8.6 -5.9,14.2 -15.9,14.2 -7.7,0 -13.8,-4.2 -16.3,-14 l 9.4,-2 c 1.1,6 4.6,8.1 7.4,8.1 3.3,0 5.9,-2.2 5.9,-5.9 0,-9.4 -21.3,-9.5 -21.3,-23.5 0,-8.6 5.1,-14 15,-14 8.5,0 13.7,5 15.3,12.1 z m 15.8,2.2 c 0,-12.3 6.5,-16.7 15.8,-16.7 9.3,0 15.8,4.4 15.8,16.7 v 17.8 c 0,12.3 -6.5,16.7 -15.8,16.7 -9.3,0 -15.8,-4.4 -15.8,-16.7 z m 9.5,19 c 0,5.5 2.4,7.1 6.2,7.1 3.8,0 6.2,-1.5 6.2,-7.1 v -20.4 c 0,-5.5 -2.4,-7 -6.2,-7 -3.8,0 -6.2,1.5 -6.2,7 z m 39.2,-35.1 v 34.9 c 0,4.7 2.1,7.3 6.7,7.3 4.6,0 6.8,-2.5 6.8,-7.3 v -34.9 h 9.5 v 35 c 0,11 -6.5,15.6 -16.3,15.6 -9.8,0 -16.3,-4.6 -16.3,-15.6 v -35 z m 61.7,0 v 8.4 h -11.1 v 41.5 h -9.5 v -41.4 h -11.1 v -8.4 h 31.7 z m 6.9,49.9 v -49.9 h 9.5 v 19.9 h 13.5 v -19.9 h 9.5 v 49.9 h -9.5 v -21.6 h -13.4 v 21.6 z m 57.5,0 v -49.9 h 24.9 v 8.4 h -15.4 v 11.5 h 12 v 8.4 h -12 v 21.6 z m 31.4,0 v -49.9 h 9.5 v 41.5 h 15.4 v 8.4 z m 30.5,-33.8 c 0,-12.3 6.5,-16.7 15.8,-16.7 9.3,0 15.8,4.4 15.8,16.7 v 17.8 c 0,12.3 -6.5,16.7 -15.8,16.7 -9.3,0 -15.8,-4.4 -15.8,-16.7 z m 9.6,19 c 0,5.5 2.4,7.1 6.2,7.1 3.8,0 6.2,-1.5 6.2,-7.1 v -20.4 c 0,-5.5 -2.4,-7 -6.2,-7 -3.8,0 -6.2,1.5 -6.2,7 z m 52.8,14.8 -8.3,-20.4 h -4.6 v 20.4 h -9.5 v -49.9 h 13.8 c 11.5,0 17,5.5 17,14.9 0,6.2 -2.2,10.7 -7.5,12.7 l 9.4,22.3 z m -12.9,-28.2 h 4.9 c 4.2,0 6.8,-2.1 6.8,-6.9 0,-4.8 -2.6,-6.9 -6.8,-6.9 h -4.9 z m 30.2,28.2 v -49.9 h 9.5 v 49.9 z m 19.3,-49.9 h 13.3 c 10.9,0 17,4.7 17.4,17.3 v 15.3 c -0.4,12.6 -6.5,17.3 -17.4,17.3 h -13.3 z m 9.6,41.5 h 3.3 c 5.3,0 8.3,-2.5 8.3,-10 v -13.1 c 0,-7 -2.3,-10 -8.3,-10 h -3.3 z m 26.2,8.4 12.4,-49.9 h 12.2 l 12.1,49.9 h -9.1 l -2.4,-10.5 h -13.2 l -2.7,10.5 z m 13.6,-18.9 h 9.5 l -4.6,-20.2 h -0.1 z"
   id="path3528"
   style="fill-rule:nonzero"
   inkscape:export-filename="path3528.svg"
   inkscape:export-xdpi="96"
   inkscape:export-ydpi="96" />
</svg>
