<?xml version="1.0" encoding="UTF-8" standalone="no"?>
<!-- Generator: Adobe Illustrator 19.2.1, SVG Export Plug-In . SVG Version: 6.00 Build 0)  -->

<svg
   version="1.1"
   id="layer"
   x="0px"
   y="0px"
   viewBox="0 0 313 130"
   xml:space="preserve"
   sodipodi:docname="university-of-south-florida-usf-vector-logo-2022.svg"
   width="313"
   height="130"
   inkscape:version="1.2.2 (b0a8486, 2022-12-01)"
   xmlns:inkscape="http://www.inkscape.org/namespaces/inkscape"
   xmlns:sodipodi="http://sodipodi.sourceforge.net/DTD/sodipodi-0.dtd"
   xmlns="http://www.w3.org/2000/svg"
   xmlns:svg="http://www.w3.org/2000/svg"><defs
   id="defs5357" /><sodipodi:namedview
   id="namedview5355"
   pagecolor="#ffffff"
   bordercolor="#000000"
   borderopacity="0.25"
   inkscape:showpageshadow="2"
   inkscape:pageopacity="0.0"
   inkscape:pagecheckerboard="0"
   inkscape:deskcolor="#d1d1d1"
   showgrid="false"
   inkscape:zoom="1.5993302"
   inkscape:cx="193.20589"
   inkscape:cy="145.99862"
   inkscape:window-width="1405"
   inkscape:window-height="855"
   inkscape:window-x="35"
   inkscape:window-y="23"
   inkscape:window-maximized="1"
   inkscape:current-layer="layer" />
<style
   type="text/css"
   id="style5340">
	.st0{fill:#FFFFFF;}
	.st1{fill:#CFC493;}
	.st2{fill:#006747;}
</style>
<path
   class="st0"
   d="m 88.666794,48.8104 c 0,-0.705866 0.700885,-2.855548 0.700885,-2.855548 0,0 -4.345486,2.342191 -4.345486,5.00523 0,1.860918 1.296636,2.983887 1.296636,3.433074 0,0.545441 -2.628318,1.668409 -10.513274,1.668409 l -5.747257,8.727069 -1.962478,1.15505 -2.383009,4.106857 h -4.45062 l 2.698407,-4.042685 -0.665841,-1.251305 6.518231,-8.951664 c -10.197877,0 -11.529558,-1.122968 -11.529558,-1.315477 0,-0.513357 4.415575,-2.374275 4.415575,-5.518586 0,-1.443816 -1.576991,-3.208481 -1.576991,-3.208481 -0.735929,6.096113 -10.793629,4.652297 -10.793629,11.55053 0,2.823463 3.749735,4.042686 7.464425,4.299364 l -1.261592,1.73258 c -0.49062,0.641697 -0.105134,1.379644 0.490619,2.470527 l -2.488142,3.657672 c 0,0 -1.15646,0.770037 -1.40177,1.187139 -0.525664,0.930459 0.560708,2.342188 2.277876,4.908971 h 12.160355 c 4.100177,-2.117598 5.782301,-2.983885 5.782301,-3.882261 l -0.07009,-0.93046 2.347964,-3.753922 c 0.595753,-0.256679 2.102655,-0.962543 2.733452,-1.893003 l 2.1377,-3.176398 c 6.097698,-0.09625 12.510796,-2.342188 12.510796,-7.154909 0.03504,-3.176395 -4.345487,-3.593498 -4.345487,-5.967773 m -8.585841,12.448904 -2.347965,3.52933 c -0.630796,0.962543 -2.628318,1.700491 -2.628318,1.700491 l -2.593275,4.13894 0.07009,1.0588 c 0.03504,0.57753 -3.995045,2.5347 -5.221594,3.20848 H 55.865376 c -0.42053,-0.641697 -2.383009,-3.20848 -2.032566,-3.882261 0.140177,-0.256679 0.700885,-0.609608 1.296638,-1.058799 l 2.803539,-4.106852 C 57.337235,64.756551 56.951748,64.08277 57.197058,63.729835 l 2.032566,-2.791379 c -2.31292,0 -8.130265,-0.513357 -8.130265,-3.625583 0,-5.74318 8.866194,-5.454417 10.303009,-9.88212 0.315398,0.449187 0.490619,0.994629 0.525663,1.507986 0,2.951802 -4.450619,4.299364 -4.450619,5.486501 0,1.668411 6.167788,2.053428 10.828673,2.053428 l -5.957522,8.181627 0.66584,1.283389 -3.153982,4.812721 h 6.307965 l 2.523186,-4.331447 1.962478,-1.155055 5.572036,-8.502472 c 7.604602,0 10.828672,-1.122968 10.828672,-2.374275 0,-0.834205 -1.296637,-1.700494 -1.296637,-3.433074 0,-1.73258 2.242832,-3.240566 2.242832,-3.240566 -1.15646,3.946432 4.240355,3.946432 4.240355,7.090742 0.03504,4.459788 -6.448142,6.449046 -12.160355,6.449046"
   id="path5342"
   style="stroke-width:0.335319;fill:#ffffff" />
<path
   class="st1"
   d="m 89.577944,48.8104 c 0,-1.251308 1.366726,-4.973145 1.366726,-4.973145 0,0 -6.868672,3.497244 -6.868672,7.122827 0,1.764664 1.086371,3.20848 1.086371,3.20848 -2.032566,0.86629 -6.027611,1.026714 -9.917522,1.026714 l -5.887434,8.951661 -1.997523,1.155055 -2.242832,3.850172 H 62.90927 L 65.011926,66.03994 64.381129,64.788634 71.5652,54.970682 c -8.16531,0 -9.847434,-0.224594 -11.669735,-0.673781 0,0 3.784779,-2.213851 3.784779,-5.293992 0,-2.053428 -2.838584,-5.197739 -2.838584,-5.197739 l -1.051328,3.240565 c -1.121416,3.497244 -10.373098,3.46516 -10.373098,10.331307 0,3.015973 3.118939,4.491874 6.763541,4.973148 l -0.420531,0.545441 c -0.700885,0.93046 -0.315398,1.893003 0.210265,2.88763 l -2.137699,3.144314 c 0,0 -1.15646,0.737947 -1.541947,1.379645 -0.735929,1.315478 0.210266,2.695123 2.55823,6.128199 H 67.85051 c 5.081416,-2.630956 6.413098,-3.33682 6.413098,-4.812721 0,0 -0.03504,-0.320852 -0.03504,-0.609614 l 2.067611,-3.272648 c 0.806018,-0.352935 2.207788,-1.090883 2.873628,-2.117598 l 1.857346,-2.791379 C 87.405205,62.606869 93.95848,60.072166 93.95848,54.842343 93.99352,51.28093 89.577949,50.382555 89.577949,48.8104 m -9.041416,13.154772 -2.137699,3.176391 c -0.630797,0.93046 -2.137699,1.63633 -2.733452,1.893009 l -2.347965,3.753922 0.07009,0.93046 c 0,0.866287 -1.682124,1.764663 -5.782301,3.882261 h -12.16036 c -1.717169,-2.566789 -2.80354,-3.978517 -2.277877,-4.908977 0.24531,-0.449185 1.40177,-1.187139 1.40177,-1.187139 l 2.488142,-3.689755 c -0.595752,-1.090883 -0.981239,-1.82883 -0.49062,-2.470527 l 1.261593,-1.73258 c -3.71469,-0.224594 -7.499469,-1.443816 -7.499469,-4.267279 0,-6.930318 10.0577,-5.454417 10.828673,-11.55053 0,0 1.576991,1.73258 1.576991,3.208481 0,3.144311 -4.450619,4.973144 -4.450619,5.518586 0,0.192509 1.331681,1.315477 11.529558,1.315477 l -6.518231,8.951662 0.665841,1.251306 -2.698407,4.010601 h 4.45062 l 2.383009,-4.106857 1.962478,-1.15505 5.712213,-8.727069 c 7.884956,0 10.513274,-1.122968 10.513274,-1.668409 0,-0.449187 -1.296637,-1.572156 -1.296637,-3.433074 0,-2.663039 4.345487,-5.00523 4.345487,-5.00523 0,0 -0.700885,2.149682 -0.700885,2.855548 0,2.374275 4.415575,2.791378 4.415575,5.999858 0,4.812721 -6.413097,7.058658 -12.510796,7.154914"
   id="path5344"
   style="stroke-width:0.335319;fill:#ffffff" />
<path
   class="st2"
   d="m 88.035998,47.751601 c 0,0 -2.242832,1.507986 -2.242832,3.240566 0,1.732579 1.296637,2.598869 1.296637,3.433073 0,1.251308 -3.259115,2.374276 -10.828673,2.374276 l -5.60708,8.502476 -1.927434,1.155049 -2.55823,4.299364 h -6.307965 l 3.224071,-4.780632 -0.665841,-1.283395 5.957522,-8.181625 c -4.660885,0 -10.828673,-0.352933 -10.828673,-2.053428 0,-1.187137 4.45062,-2.566784 4.45062,-5.486501 -0.03504,-0.545442 -0.210265,-1.058799 -0.525664,-1.507986 -1.436814,4.395618 -10.303009,4.13894 -10.303009,9.88212 0,3.112226 5.817346,3.625583 8.130266,3.625583 l -2.032567,2.791377 c -0.280353,0.352935 0.140178,1.026716 0.735929,2.117599 l -2.803539,4.106857 c -0.595752,0.449185 -1.15646,0.80212 -1.296637,1.058799 -0.350443,0.641692 1.612035,3.208475 2.032566,3.882262 h 11.494514 c 1.226549,-0.641698 5.256637,-2.598873 5.221593,-3.208481 l -0.07009,-1.058799 2.593274,-4.138941 c 0,0 1.997523,-0.737953 2.628319,-1.700496 l 2.383009,-3.529329 c 5.712212,0 12.160354,-1.989258 12.160354,-6.449046 -0.07009,-3.144311 -5.466903,-3.144311 -4.310442,-7.090742"
   id="path5346"
   style="stroke-width:0.335319;fill:#ffffff" />
<path
   class="st1"
   d="m 72.616528,74.734923 c -0.210265,0 -0.420531,0.06417 -0.595752,0.224595 -0.140177,0.128339 -0.24531,0.352929 -0.24531,0.545441 0,0.192507 0.07009,0.385019 0.24531,0.545442 0.315398,0.288762 0.841062,0.320845 1.191504,0 0,0 0,0 0,0 0.315398,-0.288763 0.315398,-0.770037 0,-1.090883 -0.140177,-0.128339 -0.350442,-0.224595 -0.595752,-0.224595 m 0.525663,1.219222 c -0.280353,0.256679 -0.735928,0.256679 -1.016283,0 0,0 0,0 0,0 -0.280353,-0.256679 -0.280353,-0.673781 0,-0.93046 0.280355,-0.256679 0.73593,-0.256679 1.016283,0 0,0 0,0 0,0 0.280355,0.256679 0.280355,0.673781 0,0.93046"
   id="path5348"
   style="stroke-width:0.335319;fill:#ffffff" />
<path
   class="st1"
   d="m 73.002015,75.312447 c 0,-0.09625 -0.03504,-0.192506 -0.140177,-0.22459 -0.07009,-0.03211 -0.175222,-0.03211 -0.24531,-0.03211 H 72.30113 v 0.83421 h 0.175221 v -0.320852 h 0.140177 c 0.07009,0 0.140177,0 0.175221,0.03211 0.07009,0.03211 0.105133,0.12834 0.07009,0.192507 v 0.06417 0.03211 0 0 h 0.140177 v 0 c 0,0 0,-0.03211 0,-0.03211 0,-0.03211 0,-0.03211 0,-0.06417 v -0.06417 c 0,-0.03211 -0.03504,-0.09626 -0.03504,-0.12834 -0.03504,-0.03211 -0.105133,-0.06417 -0.140177,-0.09626 0.03504,0 0.105133,-0.03211 0.140177,-0.03211 0,-0.03211 0.03504,-0.09626 0.03504,-0.160429 m -0.24531,0.12834 c -0.03504,0 -0.105133,0.03211 -0.140177,0.03211 h -0.140178 v -0.288761 h 0.140177 c 0.07009,0 0.140177,0 0.210265,0.03211 0.07009,0.06417 0.07009,0.160423 0.03504,0.22459 -0.07009,0 -0.07009,0 -0.105132,0"
   id="path5350"
   style="stroke-width:0.335319;fill:#ffffff" />
<path
   class="st2"
   d="m 106.04874,47.655347 v 4.716467 c 0,0.641696 0.3154,0.994628 0.98124,0.994628 0.66584,0 0.98124,-0.352932 0.98124,-0.994628 v -4.716467 h 1.40177 v 4.716467 c 0,1.4759 -0.94619,2.117596 -2.41805,2.117596 -1.47186,0 -2.38301,-0.609611 -2.38301,-2.117596 v -4.716467 z m 6.34301,6.737809 v -6.737809 h 1.54195 l 1.96248,3.978516 h 0.035 v -3.978516 h 1.29663 v 6.737809 h -1.33168 l -2.1377,-4.363533 h -0.035 v 4.363533 z m 7.74478,0 v -6.737809 h 1.40177 v 6.737809 z m 3.81983,-6.737809 h 1.40177 l 1.29663,4.812721 h 0.035 l 1.29664,-4.812721 h 1.36673 l -1.89239,6.737809 h -1.61204 z m 7.67469,6.737809 v -6.737809 h 3.85487 v 1.122968 h -2.4531 v 1.540071 h 1.85734 v 1.122968 h -1.85734 v 1.764664 h 2.55823 v 1.122968 z m 9.91752,0 -1.22655,-2.759293 h -0.66584 v 2.759293 h -1.40177 v -6.737809 h 2.03257 c 1.68212,0 2.48814,0.737951 2.48814,2.021342 0,0.834206 -0.3154,1.443817 -1.12141,1.73258 l 1.40176,3.015971 z m -1.89239,-3.786007 h 0.70089 c 0.63079,0 1.01628,-0.288763 1.01628,-0.93046 0,-0.641695 -0.38549,-0.930459 -1.01628,-0.930459 h -0.70089 z m 8.90123,-1.058799 c -0.2453,-0.641696 -0.52566,-0.898374 -1.01628,-0.898374 -0.49061,0 -0.77097,0.288763 -0.77097,0.73795 0,1.026714 3.15398,1.090884 3.15398,3.208481 0,1.155053 -0.8761,1.925088 -2.34796,1.925088 -1.15646,0 -2.03256,-0.577526 -2.41805,-1.893003 l 1.40177,-0.256678 c 0.17522,0.80212 0.66584,1.090883 1.08637,1.090883 0.45557,0.03208 0.84106,-0.288763 0.8761,-0.705866 0,-0.03208 0,-0.06417 0,-0.09625 0,-1.283392 -3.15398,-1.283392 -3.15398,-3.176395 0,-1.155053 0.77098,-1.893004 2.20779,-1.893004 1.08637,-0.06417 2.06761,0.641697 2.27788,1.636325 z m 4.17027,4.844806 v -6.737809 h 1.40177 v 6.737809 z m 8.51575,-6.737809 v 1.122968 h -1.64708 v 5.614841 h -1.40177 v -5.614841 h -1.61203 v -1.122968 z m 4.5908,2.727208 1.19151,-2.727208 h 1.5069 l -1.99753,4.010601 v 2.727208 h -1.40177 v -2.727208 l -1.99751,-4.010601 h 1.5069 z m 7.84991,4.106855 c -1.40177,0 -2.10265,-1.090883 -2.10265,-2.438445 0,-1.347562 0.70088,-2.438445 2.10265,-2.438445 1.40177,0 2.10266,1.090883 2.10266,2.438445 0,1.347562 -0.70089,2.438445 -2.10266,2.438445 z m 0,-4.331449 c -0.84106,0 -1.40177,0.673782 -1.40177,1.893004 0,1.219223 0.56071,1.893004 1.40177,1.893004 0.84106,0 1.40177,-0.673781 1.40177,-1.893004 0,-1.219222 -0.56071,-1.893004 -1.40177,-1.893004 z m 4.34549,4.235195 v -4.13894 h -0.8761 v -0.577527 h 0.8761 v -0.545441 c 0,-1.122968 0.42053,-1.379647 1.26159,-1.379647 0.21027,0 0.42053,0.03208 0.6308,0.03208 v 0.577526 c -0.17522,-0.03208 -0.35044,-0.06417 -0.52566,-0.06417 -0.49062,0 -0.66584,0.160424 -0.66584,0.673781 v 0.705865 h 1.12141 v 0.577527 h -1.12141 v 4.13894 z m -66.89947,8.727065 c -0.56071,-1.507984 -1.29664,-2.14968 -2.4531,-2.14968 -1.15646,0 -1.85734,0.673781 -1.85734,1.732578 0,2.406361 7.46442,2.598873 7.46442,7.604101 0,2.759295 -2.06761,4.556042 -5.57203,4.556042 -2.69841,0 -4.83611,-1.347562 -5.71222,-4.491876 l 3.29416,-0.641691 c 0.38549,1.925086 1.61204,2.598867 2.59328,2.598867 1.15646,0 2.06761,-0.705864 2.06761,-1.893003 0,-3.015974 -7.46443,-3.048058 -7.46443,-7.539928 0,-2.759295 1.78726,-4.491875 5.25664,-4.491875 2.97876,0 4.80107,1.604241 5.36177,3.882261 z m 5.53699,0.70587 c 0,-3.946434 2.27788,-5.358165 5.537,-5.358165 3.25911,0 5.53699,1.411731 5.53699,5.358165 v 5.711092 c 0,3.946434 -2.27788,5.358162 -5.53699,5.358162 -3.25912,0 -5.537,-1.411728 -5.537,-5.358162 z m 3.32921,6.09611 c 0,1.764664 0.84106,2.278021 2.17274,2.278021 1.33168,0 2.17274,-0.481268 2.17274,-2.278021 V 63.3769 c 0,-1.764663 -0.84106,-2.245935 -2.17274,-2.245935 -1.33168,0 -2.17274,0.481272 -2.17274,2.245935 z M 133.7337,58.660435 v 11.197599 c 0,1.507985 0.73593,2.342188 2.34797,2.342188 1.61203,0 2.38301,-0.80212 2.38301,-2.342188 V 58.660435 h 3.3292 v 11.229683 c 0,3.529326 -2.27788,5.005227 -5.71221,5.005227 -3.43434,0 -5.71222,-1.475901 -5.71222,-5.005227 V 58.660435 Z m 21.6223,0 v 2.695124 h -3.88991 v 13.315197 h -3.3292 V 61.387643 h -3.88991 V 58.69252 H 155.356 Z m 2.41805,16.010321 V 58.660435 h 3.32921 v 6.384878 h 4.73097 v -6.384878 h 3.32921 v 16.010321 h -3.32921 v -6.93032 h -4.69593 v 6.93032 z m 20.15045,0 V 58.660435 h 8.72602 v 2.695124 h -5.39682 v 3.689754 h 4.20531 v 2.695123 h -4.20531 v 6.93032 z m 11.00389,0 V 58.660435 h 3.3292 v 13.315192 h 5.39682 v 2.695129 z m 10.6885,-10.844665 c 0,-3.946434 2.27788,-5.358165 5.53699,-5.358165 3.25912,0 5.53699,1.411731 5.53699,5.358165 v 5.711092 c 0,3.946434 -2.27787,5.358162 -5.53699,5.358162 -3.25911,0 -5.53699,-1.411728 -5.53699,-5.358162 z m 3.36425,6.09611 c 0,1.764664 0.84106,2.278021 2.17274,2.278021 1.33168,0 2.17274,-0.481268 2.17274,-2.278021 V 63.3769 c 0,-1.764663 -0.84106,-2.245935 -2.17274,-2.245935 -1.33168,0 -2.17274,0.481272 -2.17274,2.245935 z m 18.50336,4.748555 -2.90867,-6.545302 h -1.61204 v 6.545302 h -3.3292 V 58.660435 h 4.83611 c 4.03009,0 5.95752,1.764664 5.95752,4.780638 0,1.989258 -0.77098,3.43307 -2.62832,4.074768 l 3.29416,7.154915 z m -4.52071,-9.047918 h 1.71717 c 1.47186,0 2.38301,-0.673781 2.38301,-2.213855 0,-1.540067 -0.91115,-2.213848 -2.38301,-2.213848 h -1.71717 z m 10.58336,9.047918 V 58.660435 h 3.32921 v 16.010321 z m 6.76355,-16.010321 h 4.66088 c 3.81983,0 5.95753,1.507986 6.0977,5.550669 v 4.908977 c -0.14017,4.042685 -2.27787,5.550675 -6.0977,5.550675 h -4.66088 z m 3.36424,13.315192 h 1.15647 c 1.85734,0 2.90867,-0.80212 2.90867,-3.208475 v -4.203113 c 0,-2.245938 -0.80602,-3.20848 -2.90867,-3.20848 h -1.15647 z m 9.1816,2.695129 4.34549,-16.010321 h 4.27539 l 4.24036,16.010321 h -3.18903 l -0.84106,-3.36891 h -4.62584 l -0.9462,3.36891 z m 4.76601,-6.064033 h 3.32921 l -1.61204,-6.481129 h -0.035 z"
   id="path5352"
   style="stroke-width:0.335319;fill:#ffffff" />
</svg>
